<mxfile host="65bd71144e">
    <diagram id="IJAdkXBiWt1ftDGZ9WUL" name="PÃ¡gina-1">
        <mxGraphModel dx="1721" dy="1799" grid="1" gridSize="10" guides="1" tooltips="1" connect="1" arrows="1" fold="1" page="1" pageScale="1" pageWidth="827" pageHeight="1169" math="0" shadow="0">
            <root>
                <mxCell id="0"/>
                <mxCell id="1" parent="0"/>
                <mxCell id="24" value="&lt;font style=&quot;font-size: 36px ; line-height: 2.6&quot;&gt;Cliente&lt;/font&gt;" style="shape=folder;fontStyle=1;spacingTop=10;tabWidth=40;tabHeight=14;tabPosition=left;html=1;fontSize=22;strokeColor=default;strokeWidth=2;verticalAlign=top;" parent="1" vertex="1">
                    <mxGeometry x="-114.5" y="-35" width="960" height="1205" as="geometry"/>
                </mxCell>
                <mxCell id="25" value="User" style="shape=umlBoundary;whiteSpace=wrap;html=1;fillColor=#1ba1e2;strokeColor=#000000;strokeWidth=2;fontStyle=1;fontSize=22;verticalAlign=middle;fontColor=#ffffff;spacing=2;" parent="1" vertex="1">
                    <mxGeometry x="280" y="100" width="140" height="120" as="geometry"/>
                </mxCell>
                <mxCell id="26" style="edgeStyle=none;html=1;exitX=0.5;exitY=0;exitDx=0;exitDy=0;entryX=0.606;entryY=1.01;entryDx=0;entryDy=0;entryPerimeter=0;fontSize=22;endArrow=none;endFill=0;strokeWidth=2;" parent="1" source="27" target="25" edge="1">
                    <mxGeometry relative="1" as="geometry"/>
                </mxCell>
                <mxCell id="27" value="Proxy" style="swimlane;fontStyle=1;align=center;verticalAlign=bottom;childLayout=stackLayout;horizontal=1;startSize=26;horizontalStack=0;resizeParent=1;resizeParentMax=0;resizeLast=0;collapsible=1;marginBottom=0;fontSize=22;strokeColor=#000000;strokeWidth=2;fillColor=#1ba1e2;fontColor=#ffffff;" parent="1" vertex="1">
                    <mxGeometry x="-44.5" y="340" width="820" height="386" as="geometry"/>
                </mxCell>
                <mxCell id="28" value="- requestId : int&#10;- client : UDPClient" style="text;strokeColor=none;fillColor=none;align=left;verticalAlign=middle;spacingLeft=4;spacingRight=4;overflow=hidden;rotatable=0;points=[[0,0.5],[1,0.5]];portConstraint=eastwest;fontSize=22;fontStyle=0" parent="27" vertex="1">
                    <mxGeometry y="26" width="820" height="50" as="geometry"/>
                </mxCell>
                <mxCell id="30" value="" style="line;strokeWidth=2;fillColor=none;align=left;verticalAlign=middle;spacingTop=-1;spacingLeft=3;spacingRight=3;rotatable=0;labelPosition=right;points=[];portConstraint=eastwest;fontSize=22;" parent="27" vertex="1">
                    <mxGeometry y="76" width="820" height="8" as="geometry"/>
                </mxCell>
                <mxCell id="31" value="+ Proxy()" style="text;strokeColor=none;fillColor=none;align=left;verticalAlign=middle;spacingLeft=4;spacingRight=4;overflow=hidden;rotatable=0;points=[[0,0.5],[1,0.5]];portConstraint=eastwest;fontSize=22;" parent="27" vertex="1">
                    <mxGeometry y="84" width="820" height="26" as="geometry"/>
                </mxCell>
                <mxCell id="32" value="+ adicionarContato(contato : Contato) : Boolean" style="text;strokeColor=none;fillColor=none;align=left;verticalAlign=middle;spacingLeft=4;spacingRight=4;overflow=hidden;rotatable=0;points=[[0,0.5],[1,0.5]];portConstraint=eastwest;fontSize=22;" parent="27" vertex="1">
                    <mxGeometry y="110" width="820" height="26" as="geometry"/>
                </mxCell>
                <mxCell id="33" value="+ listarContatos(): List&lt;Contato&gt;" style="text;strokeColor=none;fillColor=none;align=left;verticalAlign=middle;spacingLeft=4;spacingRight=4;overflow=hidden;rotatable=0;points=[[0,0.5],[1,0.5]];portConstraint=eastwest;fontSize=22;" parent="27" vertex="1">
                    <mxGeometry y="136" width="820" height="26" as="geometry"/>
                </mxCell>
                <mxCell id="34" value="+ procurarContatos(contato : Contato) : List&lt;Contato&gt;" style="text;strokeColor=none;fillColor=none;align=left;verticalAlign=middle;spacingLeft=4;spacingRight=4;overflow=hidden;rotatable=0;points=[[0,0.5],[1,0.5]];portConstraint=eastwest;fontSize=22;" parent="27" vertex="1">
                    <mxGeometry y="162" width="820" height="26" as="geometry"/>
                </mxCell>
                <mxCell id="35" value="+ editarContato(agendaAuxiliar : Agenda) : Boolean" style="text;strokeColor=none;fillColor=none;align=left;verticalAlign=middle;spacingLeft=4;spacingRight=4;overflow=hidden;rotatable=0;points=[[0,0.5],[1,0.5]];portConstraint=eastwest;fontSize=22;" parent="27" vertex="1">
                    <mxGeometry y="188" width="820" height="26" as="geometry"/>
                </mxCell>
                <mxCell id="36" value="+ removerContato(contato : Contato) : Boolean" style="text;strokeColor=none;fillColor=none;align=left;verticalAlign=middle;spacingLeft=4;spacingRight=4;overflow=hidden;rotatable=0;points=[[0,0.5],[1,0.5]];portConstraint=eastwest;fontSize=22;" parent="27" vertex="1">
                    <mxGeometry y="214" width="820" height="26" as="geometry"/>
                </mxCell>
                <mxCell id="37" value="+ limparAgenda() : Boolean" style="text;strokeColor=none;fillColor=none;align=left;verticalAlign=middle;spacingLeft=4;spacingRight=4;overflow=hidden;rotatable=0;points=[[0,0.5],[1,0.5]];portConstraint=eastwest;fontSize=22;" parent="27" vertex="1">
                    <mxGeometry y="240" width="820" height="30" as="geometry"/>
                </mxCell>
                <mxCell id="38" value="+ finaliza() : void" style="text;strokeColor=none;fillColor=none;align=left;verticalAlign=middle;spacingLeft=4;spacingRight=4;overflow=hidden;rotatable=0;points=[[0,0.5],[1,0.5]];portConstraint=eastwest;fontSize=22;" parent="27" vertex="1">
                    <mxGeometry y="270" width="820" height="26" as="geometry"/>
                </mxCell>
                <mxCell id="39" value="+ empacotaMenssagem(objRef : String, method : String, args : ByteString) : byte[ ]" style="text;strokeColor=none;fillColor=none;align=left;verticalAlign=middle;spacingLeft=4;spacingRight=4;overflow=hidden;rotatable=0;points=[[0,0.5],[1,0.5]];portConstraint=eastwest;fontSize=22;" parent="27" vertex="1">
                    <mxGeometry y="296" width="820" height="30" as="geometry"/>
                </mxCell>
                <mxCell id="40" value="+ desempacotaMenssagem(resposta : byte[ ]) : Message" style="text;strokeColor=none;fillColor=none;align=left;verticalAlign=middle;spacingLeft=4;spacingRight=4;overflow=hidden;rotatable=0;points=[[0,0.5],[1,0.5]];portConstraint=eastwest;fontSize=22;" parent="27" vertex="1">
                    <mxGeometry y="326" width="820" height="26" as="geometry"/>
                </mxCell>
                <mxCell id="41" value="+ doOperation(objectRef : String, method : String, args : ByteString) : byte[ ]" style="text;strokeColor=none;fillColor=none;align=left;verticalAlign=top;spacingLeft=4;spacingRight=4;overflow=hidden;rotatable=0;points=[[0,0.5],[1,0.5]];portConstraint=eastwest;fontSize=22;" parent="27" vertex="1">
                    <mxGeometry y="352" width="820" height="34" as="geometry"/>
                </mxCell>
                <mxCell id="42" style="edgeStyle=none;html=1;exitX=0.5;exitY=0;exitDx=0;exitDy=0;fontSize=22;endArrow=none;endFill=0;strokeWidth=2;" parent="1" source="43" target="41" edge="1">
                    <mxGeometry relative="1" as="geometry"/>
                </mxCell>
                <mxCell id="43" value="UDPClient" style="swimlane;fontStyle=1;align=center;verticalAlign=bottom;childLayout=stackLayout;horizontal=1;startSize=26;horizontalStack=0;resizeParent=1;resizeParentMax=0;resizeLast=0;collapsible=1;marginBottom=0;fontSize=22;strokeColor=#000000;strokeWidth=2;fillColor=#1ba1e2;fontColor=#ffffff;" parent="1" vertex="1">
                    <mxGeometry x="130.5" y="810" width="470" height="340" as="geometry"/>
                </mxCell>
                <mxCell id="44" value="- socket : DatagramSocket&#10;- aHost : InetAddress&#10;- request : DatagramPacket&#10;- reply : DatagramPacket" style="text;strokeColor=none;fillColor=none;align=left;verticalAlign=middle;spacingLeft=4;spacingRight=4;overflow=hidden;rotatable=0;points=[[0,0.5],[1,0.5]];portConstraint=eastwest;fontSize=22;" parent="43" vertex="1">
                    <mxGeometry y="26" width="470" height="104" as="geometry"/>
                </mxCell>
                <mxCell id="45" value="- TIMEOUT = 1500 : Integer&#10;- PORT = 6789 : Integer&#10;- IP = &quot;127.0.0.1&quot; : String" style="text;strokeColor=none;fillColor=none;align=left;verticalAlign=top;spacingLeft=4;spacingRight=4;overflow=hidden;rotatable=0;points=[[0,0.5],[1,0.5]];portConstraint=eastwest;fontSize=22;fontStyle=4" parent="43" vertex="1">
                    <mxGeometry y="130" width="470" height="90" as="geometry"/>
                </mxCell>
                <mxCell id="46" value="" style="line;strokeWidth=2;fillColor=none;align=left;verticalAlign=middle;spacingTop=-1;spacingLeft=3;spacingRight=3;rotatable=0;labelPosition=right;points=[];portConstraint=eastwest;fontSize=22;" parent="43" vertex="1">
                    <mxGeometry y="220" width="470" height="8" as="geometry"/>
                </mxCell>
                <mxCell id="47" value="+ UDPClient()&#10;+ sendRequest(byte[ ] msg) : void&#10;+ getResponse() : byte[ ]&#10;+ close() : void" style="text;strokeColor=none;fillColor=none;align=left;verticalAlign=middle;spacingLeft=4;spacingRight=4;overflow=hidden;rotatable=0;points=[[0,0.5],[1,0.5]];portConstraint=eastwest;fontSize=22;" parent="43" vertex="1">
                    <mxGeometry y="228" width="470" height="112" as="geometry"/>
                </mxCell>
            </root>
        </mxGraphModel>
    </diagram>
</mxfile>